<svg width="144" height="168" viewBox="0 0 144 168" fill="none" xmlns="http://www.w3.org/2000/svg"><path d="M6.182 78.582L14.132.594h80.136v18.369H30.997L26.27 61.609c7.663-4.511 16.364-6.767 26.104-6.767 14.251 0 25.566 4.726 33.945 14.18 8.379 9.381 12.569 22.093 12.569 38.134 0 16.114-4.369 28.825-13.106 38.135-8.665 9.238-20.804 13.857-36.416 13.857-13.822 0-25.1-3.831-33.838-11.494-8.737-7.662-13.714-18.261-14.932-31.797h18.8c1.217 8.952 4.404 15.72 9.56 20.303 5.156 4.512 11.96 6.768 20.41 6.768 9.238 0 16.471-3.151 21.7-9.453 5.299-6.302 7.948-15.004 7.948-26.104 0-10.456-2.864-18.834-8.593-25.137-5.658-6.373-13.213-9.56-22.666-9.56-8.666 0-15.47 1.898-20.41 5.693l-5.264 4.297-15.899-4.082zm108.826 69.032l4.589-15.445h7.115l-9.983 28.686-.551 1.309c-1.484 3.243-3.932 4.865-7.344 4.865-.964 0-1.943-.146-2.937-.436v-5.026l1.009.023c1.255 0 2.188-.191 2.8-.574.628-.382 1.117-1.017 1.469-1.905l.78-2.042-8.697-24.9h7.137l4.613 15.445zm28.273-9.226a18.077 18.077 0 0 0-2.387-.183c-2.509 0-4.154.849-4.934 2.547V157h-6.632v-24.831h6.265l.184 2.96c1.331-2.279 3.174-3.419 5.53-3.419.735 0 1.423.099 2.066.298l-.092 6.38z" fill="#fff"/></svg>