<svg width="246" height="162" viewBox="0 0 246 162" fill="none" xmlns="http://www.w3.org/2000/svg"><path d="M79.375 90.25c-4.153 4.941-9.13 8.916-14.931 11.924-5.73 3.008-12.032 4.512-18.907 4.512-9.023 0-16.9-2.221-23.632-6.661-6.66-4.44-11.817-10.67-15.47-18.691C2.785 73.241.958 64.326.958 54.586c0-10.456 1.97-19.873 5.909-28.252 4.01-8.379 9.668-14.788 16.972-19.229 7.305-4.44 15.827-6.66 25.567-6.66 15.468 0 27.643 5.801 36.523 17.403 8.952 11.53 13.428 27.285 13.428 47.265v5.801c0 30.436-6.016 52.673-18.047 66.709-12.031 13.965-30.186 21.126-54.463 21.484H22.98V142.35h4.19c16.4-.287 29.003-4.548 37.812-12.784 8.809-8.307 13.607-21.412 14.394-39.316zm-30.615 0c6.66 0 12.783-2.041 18.37-6.123 5.657-4.082 9.775-9.13 12.353-15.146v-7.95c0-13.034-2.829-23.633-8.487-31.797-5.657-8.164-12.818-12.246-21.484-12.246-8.737 0-15.755 3.366-21.055 10.098-5.3 6.66-7.949 15.469-7.949 26.426 0 10.67 2.543 19.479 7.627 26.425C33.291 86.814 40.166 90.25 48.76 90.25zM184.937 2.486v16.866h-3.653c-15.468.286-27.786 4.87-36.953 13.75-9.166 8.88-14.466 21.377-15.898 37.49 8.235-9.453 19.479-14.18 33.73-14.18 13.607 0 24.457 4.798 32.549 14.395 8.164 9.596 12.246 21.985 12.246 37.168 0 16.113-4.404 29.004-13.213 38.671-8.737 9.668-20.481 14.502-35.234 14.502-14.968 0-27.106-5.729-36.416-17.187-9.31-11.53-13.965-26.354-13.965-44.473v-7.627c0-28.789 6.123-50.774 18.369-65.957 12.318-15.254 30.615-23.06 54.893-23.418h3.545zm-26.104 70.47c-6.803 0-13.069 2.04-18.799 6.122-5.729 4.082-9.703 9.203-11.923 15.361v7.305c0 12.891 2.9 23.275 8.701 31.152 5.801 7.878 13.034 11.817 21.699 11.817 8.952 0 15.97-3.294 21.055-9.883 5.156-6.588 7.734-15.218 7.734-25.889 0-10.742-2.614-19.407-7.842-25.996-5.156-6.66-12.031-9.99-20.625-9.99zm56.433 59.056c0-2.05.665-3.71 1.996-4.98 1.331-1.285 3.075-1.928 5.233-1.928 2.188 0 3.947.635 5.278 1.905 1.331 1.254 1.997 2.96 1.997 5.117v1.653c0 2.065-.666 3.725-1.997 4.98-1.331 1.254-3.075 1.882-5.232 1.882-2.173 0-3.932-.628-5.279-1.882-1.331-1.27-1.996-2.976-1.996-5.118v-1.629zm4.406 1.767c0 .918.26 1.66.78 2.226.536.551 1.232.826 2.089.826.856 0 1.537-.283 2.042-.849.505-.566.757-1.323.757-2.272v-1.698c0-.918-.252-1.66-.757-2.226-.505-.566-1.201-.849-2.088-.849-.842 0-1.523.283-2.043.849-.52.55-.78 1.323-.78 2.318v1.675zm11.566 17.028c0-2.065.674-3.725 2.02-4.98 1.346-1.27 3.09-1.905 5.232-1.905 2.173 0 3.925.628 5.256 1.882 1.346 1.239 2.019 2.953 2.019 5.141v1.652c0 2.05-.658 3.71-1.973 4.98-1.316 1.255-3.068 1.882-5.256 1.882-2.203 0-3.97-.635-5.301-1.905s-1.997-2.953-1.997-5.049v-1.698zm4.407 1.79c0 .842.275 1.561.826 2.157.551.597 1.239.895 2.065.895 1.867 0 2.8-1.032 2.8-3.098v-1.744c0-.918-.26-1.652-.78-2.203-.52-.566-1.209-.849-2.066-.849-.856 0-1.545.283-2.065.849-.52.551-.78 1.308-.78 2.272v1.721zm-11.796 3.902l-3.236-1.745 16.317-26.116 3.236 1.744-16.317 26.117z" fill="#fff"/></svg>