<svg width="22" height="19" viewBox="0 0 22 19" fill="none" xmlns="http://www.w3.org/2000/svg"><path d="M10.601 17.209l-.7.713.7.69.702-.69-.702-.713zm-7.275-7.153l-.7.713.7-.713zm7.275-7.153l-.7.713.7.69.702-.69-.702-.713zm7.275 7.153l.702.713-.701-.713zm-6.573 6.44L4.028 9.343 2.625 10.77 9.9 17.922l1.403-1.426zM4.028 9.343C2.606 7.945 2.114 6.651 2.102 5.622c-.012-1.028.45-1.937 1.224-2.596 1.556-1.327 4.348-1.599 6.574.59l1.403-1.426C8.333-.73 4.369-.49 2.028 1.503.854 2.505.082 3.96.102 5.645c.02 1.685.827 3.456 2.523 5.124l1.403-1.426zm7.275 8.579l7.275-7.153-1.402-1.426L9.9 16.496l1.403 1.426zm7.275-7.153C20.274 9.101 21.08 7.33 21.1 5.645c.02-1.686-.752-3.14-1.926-4.142C16.834-.49 12.87-.73 9.9 2.19l1.403 1.426c2.226-2.189 5.018-1.917 6.575-.59.773.66 1.236 1.568 1.223 2.596-.012 1.03-.504 2.323-1.926 3.721l1.403 1.426z" fill="#fff"/></svg>