<svg width="114" height="103" viewBox="0 0 114 103" fill="none" xmlns="http://www.w3.org/2000/svg"><path d="M77 64h2v-4h-2v4zM2 62H0a2 2 0 0 0 2 2v-2zM2 2V0a2 2 0 0 0-2 2h2zm92 0h2a2 2 0 0 0-2-2v2zm-2 35v2h4v-2h-4zM32 75h-2v4h2v-4zm32 4h2v-4h-2v4zm14-42v-2a2 2 0 0 0-2 2h2zm34 0h2a2 2 0 0 0-2-2v2zm0 64v2a2 2 0 0 0 2-2h-2zm-34 0h-2a2 2 0 0 0 2 2v-2zm1-52h-2v4h2v-4zm31 4h2v-4h-2v4zM79 85h-2v4h2v-4zm31 4h2v-4h-2v4zm-17 3h-2v4h2v-4zm4 4h2v-4h-2v4zm-4-54h-2v4h2v-4zm4 4h2v-4h-2v4zM40 74.118v2h4v-2h-4zm4-10.236v-2h-4v2h4zm8 10.236v2h4v-2h-4zm4-10.236v-2h-4v2h4zM77 60H2v4h75v-4zM4 62V2H0v60h4zM2 4h92V0H2v4zm90-2v35h4V2h-4zM32 79h32v-4H32v4zm46-40h34v-4H78v4zm32-2v64h4V37h-4zm2 62H78v4h34v-4zm-32 2V37h-4v64h4zm-1-48h31v-4H79v4zm0 36h31v-4H79v4zm14 7h4v-4h-4v4zm0-50h4v-4h-4v4zM44 74.118V63.882h-4v10.236h4zm12 0V63.882h-4v10.236h4z" fill="#222"/></svg>