<svg width="126" height="129" viewBox="0 0 126 129" fill="none" xmlns="http://www.w3.org/2000/svg"><path fill-rule="evenodd" clip-rule="evenodd" d="M0 127a2 2 0 0 1 2-2h122a2 2 0 1 1 0 4H2a2 2 0 0 1-2-2z" fill="#222"/><path fill-rule="evenodd" clip-rule="evenodd" d="M21 87a2 2 0 0 1 2-2h80a2 2 0 0 1 2 2v40a2 2 0 1 1-4 0V89H25v38a2 2 0 1 1-4 0V87z" fill="#222"/><path fill-rule="evenodd" clip-rule="evenodd" d="M67 107c0 2.206-1.794 4-4 4s-4-1.794-4-4 1.794-4 4-4 4 1.794 4 4zm-4-8c-4.412 0-8 3.588-8 8s3.588 8 8 8 8-3.588 8-8-3.588-8-8-8zm.751-87c-9.713 0-18 8.985-18 20.574v6.852c0 11.589 8.287 20.574 18 20.574s18-8.985 18-20.574v-6.852c0-11.589-8.287-20.574-18-20.574zm-22 20.574c0-13.33 9.637-24.574 22-24.574s22 11.245 22 24.574v6.852c0 13.33-9.637 24.574-22 24.574s-22-11.245-22-24.574v-6.852z" fill="#222"/><path fill-rule="evenodd" clip-rule="evenodd" d="M44.019 28.796L43.864 26l-4.294.238c-4.408.245-7.788 4.023-7.544 8.432a8.004 8.004 0 0 0 8.432 7.544l4.293-.239-.155-2.795-3.894.216a5.203 5.203 0 0 1-5.481-4.904 5.203 5.203 0 0 1 4.904-5.48l3.894-.216zm38.237 10.05l-.3 2.958 4.278.433A8.004 8.004 0 0 0 95 35.084a8.004 8.004 0 0 0-7.153-8.766l-4.278-.433-.265 2.61 4.016.522a5.202 5.202 0 0 1 4.486 5.827 5.203 5.203 0 0 1-5.827 4.487l-3.723-.485z" fill="#222"/><path fill-rule="evenodd" clip-rule="evenodd" d="M63.567 4c-12.938 0-23.185 9.716-23.185 21.375a2 2 0 0 1-4 0C36.382 11.232 48.706 0 63.567 0c14.912 0 27.184 11.56 27.184 26a2 2 0 0 1-4 0c0-12.052-10.298-22-23.184-22zm25.184 35a2 2 0 0 1 2 2v9.065a3 3 0 0 1-3 3h-23a2 2 0 1 1 0-4h22V41a2 2 0 0 1 2-2zM72 72H54c-8.011 0-14.728 5.541-16.527 13h51.054C86.727 77.541 80.01 72 72 72zm20.62 13C90.752 75.315 82.23 68 72 68H54c-10.23 0-18.752 7.315-20.62 17a21.11 21.11 0 0 0-.38 4h60c0-1.368-.13-2.705-.38-4z" fill="#222"/></svg>