<svg width="20" height="15" viewBox="0 0 20 15" fill="none" xmlns="http://www.w3.org/2000/svg"><path d="M1.102 4V3a1 1 0 0 0-.958 1.287L1.102 4zm3 10l-.958.287a1 1 0 0 0 .958.713v-1zm11 0v1a1 1 0 0 0 .957-.713L15.102 14zm3-10l.957.287A1 1 0 0 0 18.102 3v1zM5.059.713a1 1 0 0 0-1.915.574L5.059.713zm11.2.574a1 1 0 1 0-1.915-.574l1.915.574zm-16.115 3l3 10 1.915-.574-3-10-1.915.574zM4.102 15h11v-2h-11v2zm11.957-.713l3-10-1.915-.574-3 10 1.915.574zM18.102 3h-17v2h17V3zM3.144 1.287l.942 3.141 1.916-.574L5.059.713l-1.915.574zm11.2-.574l-.947 3.156 1.915.575.947-3.157-1.915-.574z" fill="#fff"/></svg>