<svg width="24" height="24" viewBox="0 0 24 24" fill="none" xmlns="http://www.w3.org/2000/svg"><path d="M12 9.614A2.39 2.39 0 0 0 9.613 12 2.39 2.39 0 0 0 12 14.387 2.39 2.39 0 0 0 14.386 12 2.39 2.39 0 0 0 12 9.614zm0 0A2.39 2.39 0 0 0 9.613 12 2.39 2.39 0 0 0 12 14.387 2.39 2.39 0 0 0 14.386 12 2.39 2.39 0 0 0 12 9.614zm3.976-3.892H8.024a2.305 2.305 0 0 0-2.302 2.302v7.952a2.305 2.305 0 0 0 2.302 2.302h7.952a2.305 2.305 0 0 0 2.302-2.302V8.024a2.305 2.305 0 0 0-2.302-2.302zM12 16.133A4.138 4.138 0 0 1 7.867 12 4.138 4.138 0 0 1 12 7.867 4.138 4.138 0 0 1 16.133 12 4.138 4.138 0 0 1 12 16.133zm4.266-7.412a.979.979 0 0 1 0-1.955.98.98 0 0 1 0 1.955zM12 9.614A2.39 2.39 0 0 0 9.613 12 2.39 2.39 0 0 0 12 14.387 2.39 2.39 0 0 0 14.386 12 2.39 2.39 0 0 0 12 9.614zm3.976-3.892H8.024a2.305 2.305 0 0 0-2.302 2.302v7.952a2.305 2.305 0 0 0 2.302 2.302h7.952a2.305 2.305 0 0 0 2.302-2.302V8.024a2.305 2.305 0 0 0-2.302-2.302zM12 16.133A4.138 4.138 0 0 1 7.867 12 4.138 4.138 0 0 1 12 7.867 4.138 4.138 0 0 1 16.133 12 4.138 4.138 0 0 1 12 16.133zm4.266-7.412a.979.979 0 0 1 0-1.955.98.98 0 0 1 0 1.955zM12 9.614A2.39 2.39 0 0 0 9.613 12 2.39 2.39 0 0 0 12 14.387 2.39 2.39 0 0 0 14.386 12 2.39 2.39 0 0 0 12 9.614zM2 0a2 2 0 0 0-2 2v20a2 2 0 0 0 2 2h20a2 2 0 0 0 2-2V2a2 2 0 0 0-2-2H2zm18.024 15.976a4.053 4.053 0 0 1-4.048 4.048H8.024a4.053 4.053 0 0 1-4.048-4.048V8.024a4.053 4.053 0 0 1 4.048-4.048h7.952a4.053 4.053 0 0 1 4.048 4.048v7.952zM15.976 5.722H8.024a2.305 2.305 0 0 0-2.302 2.302v7.952a2.305 2.305 0 0 0 2.302 2.302h7.952a2.305 2.305 0 0 0 2.302-2.302V8.024a2.305 2.305 0 0 0-2.302-2.302zM12 16.133A4.138 4.138 0 0 1 7.867 12 4.138 4.138 0 0 1 12 7.867 4.138 4.138 0 0 1 16.133 12 4.138 4.138 0 0 1 12 16.133zm4.266-7.412a.979.979 0 0 1 0-1.955.98.98 0 0 1 0 1.955zM12 9.614A2.39 2.39 0 0 0 9.613 12 2.39 2.39 0 0 0 12 14.387 2.39 2.39 0 0 0 14.386 12 2.39 2.39 0 0 0 12 9.614zm0 0A2.39 2.39 0 0 0 9.613 12 2.39 2.39 0 0 0 12 14.387 2.39 2.39 0 0 0 14.386 12 2.39 2.39 0 0 0 12 9.614zm0 0A2.39 2.39 0 0 0 9.613 12 2.39 2.39 0 0 0 12 14.387 2.39 2.39 0 0 0 14.386 12 2.39 2.39 0 0 0 12 9.614zm3.976-3.892H8.024a2.305 2.305 0 0 0-2.302 2.302v7.952a2.305 2.305 0 0 0 2.302 2.302h7.952a2.305 2.305 0 0 0 2.302-2.302V8.024a2.305 2.305 0 0 0-2.302-2.302zM12 16.133A4.138 4.138 0 0 1 7.867 12 4.138 4.138 0 0 1 12 7.867 4.138 4.138 0 0 1 16.133 12 4.138 4.138 0 0 1 12 16.133zm4.266-7.412a.979.979 0 0 1 0-1.955.98.98 0 0 1 0 1.955zM12 9.614A2.39 2.39 0 0 0 9.613 12 2.39 2.39 0 0 0 12 14.387 2.39 2.39 0 0 0 14.386 12 2.39 2.39 0 0 0 12 9.614zm0 0A2.39 2.39 0 0 0 9.613 12 2.39 2.39 0 0 0 12 14.387 2.39 2.39 0 0 0 14.386 12 2.39 2.39 0 0 0 12 9.614zm0 0A2.39 2.39 0 0 0 9.613 12 2.39 2.39 0 0 0 12 14.387 2.39 2.39 0 0 0 14.386 12 2.39 2.39 0 0 0 12 9.614zm3.976-3.892H8.024a2.305 2.305 0 0 0-2.302 2.302v7.952a2.305 2.305 0 0 0 2.302 2.302h7.952a2.305 2.305 0 0 0 2.302-2.302V8.024a2.305 2.305 0 0 0-2.302-2.302zM12 16.133A4.138 4.138 0 0 1 7.867 12 4.138 4.138 0 0 1 12 7.867 4.138 4.138 0 0 1 16.133 12 4.138 4.138 0 0 1 12 16.133zm4.266-7.412a.979.979 0 0 1 0-1.955.98.98 0 0 1 0 1.955zM12 9.614A2.39 2.39 0 0 0 9.613 12 2.39 2.39 0 0 0 12 14.387 2.39 2.39 0 0 0 14.386 12 2.39 2.39 0 0 0 12 9.614z" fill="#222"/></svg>