<svg width="260" height="77" viewBox="0 0 260 77" fill="none" xmlns="http://www.w3.org/2000/svg"><path d="M97.763 49.702h-.206l-7.852-30.91h-6.87v38.932h4.331V25.497h.155l8.102 32.227h4.206l8.207-32.227h.154v32.227h4.651V18.792h-7.178l-7.7 30.91zm28.585-30.91l-9.322 38.932h4.776l2.123-9.132h10.641l2.071 9.132h4.963l-9.035-38.935-6.217.003zm-1.844 25.905l4.675-21.279h.215l4.518 21.283-9.408-.004zm32.688-4.117h4.828v12.08a6.502 6.502 0 0 1-4.414 1.318 6.121 6.121 0 0 1-3.793-1.209 9.26 9.26 0 0 1-2.674-3.293 19.005 19.005 0 0 1-1.605-5.014 33.76 33.76 0 0 1-.549-6.245c-.006-2.039.16-4.074.497-6.08a19.226 19.226 0 0 1 1.534-5.06 9.897 9.897 0 0 1 2.571-3.43 5.56 5.56 0 0 1 3.657-1.263 6.373 6.373 0 0 1 3.274.877 8.05 8.05 0 0 1 2.642 2.635l2.911-3.36a9.628 9.628 0 0 0-3.797-3.526 11.458 11.458 0 0 0-5.243-1.153 9.97 9.97 0 0 0-5.43 1.536 12.954 12.954 0 0 0-4.063 4.253 22.067 22.067 0 0 0-2.539 6.432 38.07 38.07 0 0 0 0 16.465 20.176 20.176 0 0 0 2.601 6.365 12.797 12.797 0 0 0 4.227 4.103 11.006 11.006 0 0 0 5.658 1.461c1.792.044 3.577-.25 5.273-.866a12.568 12.568 0 0 0 3.76-2.28V36.333h-9.326v4.248zm21.095-1h10.225v-4.125h-10.246V23.18h10.952v-4.39h-15.47v38.933h16.008V53.27h-11.469V39.58zm22.255-20.788h-4.673v38.935h4.673V18.792zm25.423 30.24h-.154l-11.572-30.24h-5.606v38.932h4.311V27.528h.155l11.728 30.196h5.45V18.792h-4.312v30.24zm29.746-30.24v30.251h-.155l-11.574-30.251h-5.604v38.932h4.311V27.528h.155l11.729 30.196H260V18.792h-4.289zM0 19.145v38.29L31.311 76.58l31.301-19.145v-38.29L31.312 0 0 19.145zM25.466 8.57l-9.618 17.777-9.715-5.942L25.466 8.57zm-8.112 23.687l9.866 6.033L7.598 50.297l9.756-18.04zM4.087 24.143l9.726 5.949L4.087 48.06V24.143zm25.18 46.199L6.132 56.188 29.268 42.04v28.303zm4.088 0V42.044l23.128 14.144-23.128 14.154zm25.17-17.903l-23.13-14.147 23.132-14.147-.002 28.294zM56.48 20.394L31.31 35.792l-11.92-7.293L31.907 5.36l24.574 15.033z" fill="#222"/></svg>