<svg width="146" height="41" viewBox="0 0 146 41" fill="none" xmlns="http://www.w3.org/2000/svg"><path d="M54.898 26.61h-.116l-4.41-16.55h-3.856v20.845h2.431V13.651h.087l4.55 17.254h2.361l4.609-17.254h.087v17.254h2.611V10.061h-4.03L54.897 26.61zM70.95 10.06l-5.235 20.845h2.682l1.192-4.89h5.975l1.163 4.89h2.787L74.44 10.06h-3.49zm-1.036 13.87l2.625-11.392h.12l2.537 11.395-5.282-.003zm18.356-2.204h2.71v6.468a3.777 3.777 0 0 1-2.479.705 3.553 3.553 0 0 1-2.13-.647 5.012 5.012 0 0 1-1.5-1.763 9.84 9.84 0 0 1-.902-2.685 17.21 17.21 0 0 1-.308-3.343c-.004-1.091.09-2.181.28-3.256.155-.94.445-1.852.86-2.709.34-.712.834-1.34 1.444-1.836a3.22 3.22 0 0 1 2.054-.676 3.716 3.716 0 0 1 1.838.47c.597.346 1.105.83 1.484 1.41l1.634-1.798a5.312 5.312 0 0 0-2.132-1.888 6.696 6.696 0 0 0-2.944-.617 5.802 5.802 0 0 0-3.049.822 7.092 7.092 0 0 0-2.282 2.277 11.492 11.492 0 0 0-1.425 3.444 19.459 19.459 0 0 0 0 8.815 10.526 10.526 0 0 0 1.46 3.408 7.042 7.042 0 0 0 2.374 2.196c.975.531 2.069.8 3.177.782a8.429 8.429 0 0 0 2.96-.463 7.132 7.132 0 0 0 2.112-1.22v-10.17H88.27v2.274zm11.845-.536h5.742v-2.208h-5.754v-6.571h6.15v-2.35h-8.687v20.844h8.989v-2.386h-6.44v-7.328zm12.497-11.13h-2.624v20.846h2.624V10.061zm14.276 16.191h-.087l-6.498-16.19h-3.148v20.844h2.421V14.738h.087l6.586 16.167h3.06V10.061h-2.421v16.19zm16.703-16.191v16.197h-.087l-6.499-16.196h-3.147v20.844h2.421V14.738h.087l6.586 16.167H146V10.061h-2.409zM0 10.25v20.5L17.583 41l17.576-10.25v-20.5L17.583 0 0 10.25zm14.3-5.662l-5.4 9.518-5.456-3.181L14.3 4.588zM9.745 17.27l5.54 3.23-11.018 6.428 5.478-9.658zm-7.45-4.344l5.462 3.185-5.462 9.62V12.926zm14.14 24.734L3.443 30.083l12.992-7.576V37.66zm2.295 0V22.51l12.988 7.572L18.73 37.66zm14.134-9.585l-12.989-7.574 12.99-7.574-.001 15.148zM31.716 10.92l-14.133 8.244-6.694-3.905L17.917 2.87l13.8 8.049z" fill="#fff"/></svg>