<svg width="22" height="26" viewBox="0 0 22 26" fill="none" xmlns="http://www.w3.org/2000/svg"><path d="M21 25v1a1 1 0 0 0 1-1h-1zM1 25H0a1 1 0 0 0 1 1v-1zM1 1V0a1 1 0 0 0-1 1h1zm20 0h1a1 1 0 0 0-1-1v1zM5.5 19a1 1 0 1 0 0 2v-2zm8.5 2a1 1 0 1 0 0-2v2zm3-11v1a1 1 0 0 0 1-1h-1zM5 10H4a1 1 0 0 0 1 1v-1zm0-4V5a1 1 0 0 0-1 1h1zm12 0h1a1 1 0 0 0-1-1v1zM5.5 14a1 1 0 1 0 0 2v-2zm11 2a1 1 0 1 0 0-2v2zm4.5 8H1v2h20v-2zM2 25V1H0v24h2zM1 2h20V0H1v2zm21 23V1h-2v24h2zM5.5 21H14v-2H5.5v2zM17 9H5v2h12V9zM6 10V6H4v4h2zM5 7h12V5H5v2zm13 3V6h-2v4h2zM5.5 16h11v-2h-11v2z" fill="#555"/></svg>