<svg width="40" height="46" viewBox="0 0 40 46" fill="none" xmlns="http://www.w3.org/2000/svg"><mask id="a" fill="#fff"><path fill-rule="evenodd" clip-rule="evenodd" d="M1 37.62a1 1 0 0 1 1 1V44h36v-5.38a1 1 0 1 1 2 0V45a1 1 0 0 1-1 1H1a1 1 0 0 1-1-1v-6.38a1 1 0 0 1 1-1z"/><path d="M36.157 14.221l-2.526-.429a14.26 14.26 0 0 0-1.016-2.451l1.49-2.083a2.217 2.217 0 0 0-.241-2.866l-2.241-2.24a2.208 2.208 0 0 0-2.858-.241L26.675 5.4a14.12 14.12 0 0 0-2.543-1.046l-.42-2.496A2.222 2.222 0 0 0 21.514 0H18.35c-1.09 0-2.015.782-2.196 1.858l-.436 2.556c-.842.264-1.662.61-2.444 1.03l-2.068-1.488a2.208 2.208 0 0 0-1.294-.414c-.594 0-1.158.233-1.571.654L6.09 6.437a2.226 2.226 0 0 0-.24 2.866l1.503 2.113a14.02 14.02 0 0 0-1 2.46l-2.496.42A2.222 2.222 0 0 0 2 16.492v3.166c0 1.09.782 2.016 1.858 2.196l2.556.436c.264.843.61 1.662 1.03 2.445l-1.48 2.06a2.217 2.217 0 0 0 .24 2.865l2.24 2.241a2.208 2.208 0 0 0 2.859.241l2.113-1.504c.76.399 1.557.722 2.376.978l.421 2.526A2.222 2.222 0 0 0 18.41 36h3.174c1.09 0 2.015-.782 2.196-1.858l.428-2.526c.85-.264 1.67-.602 2.452-1.016l2.083 1.49c.376.27.828.413 1.294.413a2.21 2.21 0 0 0 1.572-.654l2.24-2.241a2.226 2.226 0 0 0 .241-2.866l-1.489-2.09c.414-.79.76-1.61 1.015-2.452l2.527-.421A2.222 2.222 0 0 0 38 19.583v-3.166a2.195 2.195 0 0 0-1.843-2.196zm-.173 5.362c0 .098-.067.18-.165.196l-3.159.526a1.01 1.01 0 0 0-.812.744 12.038 12.038 0 0 1-1.308 3.152c-.203.346-.188.774.045 1.105l1.857 2.617a.205.205 0 0 1-.022.256l-2.241 2.24a.191.191 0 0 1-.143.061.184.184 0 0 1-.113-.038l-2.61-1.857a1.016 1.016 0 0 0-1.105-.045 12.035 12.035 0 0 1-3.151 1.308.998.998 0 0 0-.745.813l-.534 3.158a.195.195 0 0 1-.195.165h-3.166a.195.195 0 0 1-.196-.165l-.526-3.159a1.01 1.01 0 0 0-.745-.812 12.498 12.498 0 0 1-3.083-1.263 1.042 1.042 0 0 0-.511-.135.99.99 0 0 0-.587.188l-2.632 1.872a.223.223 0 0 1-.113.038.202.202 0 0 1-.143-.06l-2.24-2.241a.204.204 0 0 1-.023-.256l1.85-2.595a1.03 1.03 0 0 0 .045-1.113 11.928 11.928 0 0 1-1.324-3.143 1.03 1.03 0 0 0-.812-.745l-3.181-.541a.195.195 0 0 1-.166-.196v-3.166c0-.098.068-.18.166-.195l3.136-.527c.398-.067.722-.36.82-.752a12.027 12.027 0 0 1 1.286-3.158c.203-.346.18-.775-.053-1.098L7.512 8.13a.205.205 0 0 1 .023-.256l2.241-2.241a.191.191 0 0 1 .143-.06c.045 0 .083.015.113.037l2.594 1.85a1.03 1.03 0 0 0 1.113.045 11.926 11.926 0 0 1 3.144-1.323 1.03 1.03 0 0 0 .744-.812l.542-3.182a.195.195 0 0 1 .195-.165h3.166c.098 0 .18.068.196.165l.526 3.136c.068.399.361.722.752.82 1.136.286 2.219.73 3.226 1.324.346.203.775.188 1.106-.045l2.595-1.865a.224.224 0 0 1 .112-.038.2.2 0 0 1 .143.06l2.241 2.241a.204.204 0 0 1 .023.256l-1.858 2.61a1.016 1.016 0 0 0-.045 1.105 12.04 12.04 0 0 1 1.309 3.151.998.998 0 0 0 .812.745l3.158.533a.195.195 0 0 1 .166.196v3.166h-.008z"/><path d="M20.004 10.228a7.773 7.773 0 0 0-7.769 7.768 7.773 7.773 0 0 0 7.769 7.769 7.773 7.773 0 0 0 7.768-7.769 7.773 7.773 0 0 0-7.768-7.768zm0 13.506a5.742 5.742 0 0 1-5.738-5.738 5.742 5.742 0 0 1 5.738-5.738 5.742 5.742 0 0 1 5.738 5.738 5.742 5.742 0 0 1-5.738 5.738z"/></mask><path fill-rule="evenodd" clip-rule="evenodd" d="M1 37.62a1 1 0 0 1 1 1V44h36v-5.38a1 1 0 1 1 2 0V45a1 1 0 0 1-1 1H1a1 1 0 0 1-1-1v-6.38a1 1 0 0 1 1-1z" fill="#333"/><path d="M36.157 14.221l-2.526-.429a14.26 14.26 0 0 0-1.016-2.451l1.49-2.083a2.217 2.217 0 0 0-.241-2.866l-2.241-2.24a2.208 2.208 0 0 0-2.858-.241L26.675 5.4a14.12 14.12 0 0 0-2.543-1.046l-.42-2.496A2.222 2.222 0 0 0 21.514 0H18.35c-1.09 0-2.015.782-2.196 1.858l-.436 2.556c-.842.264-1.662.61-2.444 1.03l-2.068-1.488a2.208 2.208 0 0 0-1.294-.414c-.594 0-1.158.233-1.571.654L6.09 6.437a2.226 2.226 0 0 0-.24 2.866l1.503 2.113a14.02 14.02 0 0 0-1 2.46l-2.496.42A2.222 2.222 0 0 0 2 16.492v3.166c0 1.09.782 2.016 1.858 2.196l2.556.436c.264.843.61 1.662 1.03 2.445l-1.48 2.06a2.217 2.217 0 0 0 .24 2.865l2.24 2.241a2.208 2.208 0 0 0 2.859.241l2.113-1.504c.76.399 1.557.722 2.376.978l.421 2.526A2.222 2.222 0 0 0 18.41 36h3.174c1.09 0 2.015-.782 2.196-1.858l.428-2.526c.85-.264 1.67-.602 2.452-1.016l2.083 1.49c.376.27.828.413 1.294.413a2.21 2.21 0 0 0 1.572-.654l2.24-2.241a2.226 2.226 0 0 0 .241-2.866l-1.489-2.09c.414-.79.76-1.61 1.015-2.452l2.527-.421A2.222 2.222 0 0 0 38 19.583v-3.166a2.195 2.195 0 0 0-1.843-2.196zm-.173 5.362c0 .098-.067.18-.165.196l-3.159.526a1.01 1.01 0 0 0-.812.744 12.038 12.038 0 0 1-1.308 3.152c-.203.346-.188.774.045 1.105l1.857 2.617a.205.205 0 0 1-.022.256l-2.241 2.24a.191.191 0 0 1-.143.061.184.184 0 0 1-.113-.038l-2.61-1.857a1.016 1.016 0 0 0-1.105-.045 12.035 12.035 0 0 1-3.151 1.308.998.998 0 0 0-.745.813l-.534 3.158a.195.195 0 0 1-.195.165h-3.166a.195.195 0 0 1-.196-.165l-.526-3.159a1.01 1.01 0 0 0-.745-.812 12.498 12.498 0 0 1-3.083-1.263 1.042 1.042 0 0 0-.511-.135.99.99 0 0 0-.587.188l-2.632 1.872a.223.223 0 0 1-.113.038.202.202 0 0 1-.143-.06l-2.24-2.241a.204.204 0 0 1-.023-.256l1.85-2.595a1.03 1.03 0 0 0 .045-1.113 11.928 11.928 0 0 1-1.324-3.143 1.03 1.03 0 0 0-.812-.745l-3.181-.541a.195.195 0 0 1-.166-.196v-3.166c0-.098.068-.18.166-.195l3.136-.527c.398-.067.722-.36.82-.752a12.027 12.027 0 0 1 1.286-3.158c.203-.346.18-.775-.053-1.098L7.512 8.13a.205.205 0 0 1 .023-.256l2.241-2.241a.191.191 0 0 1 .143-.06c.045 0 .083.015.113.037l2.594 1.85a1.03 1.03 0 0 0 1.113.045 11.926 11.926 0 0 1 3.144-1.323 1.03 1.03 0 0 0 .744-.812l.542-3.182a.195.195 0 0 1 .195-.165h3.166c.098 0 .18.068.196.165l.526 3.136c.068.399.361.722.752.82 1.136.286 2.219.73 3.226 1.324.346.203.775.188 1.106-.045l2.595-1.865a.224.224 0 0 1 .112-.038.2.2 0 0 1 .143.06l2.241 2.241a.204.204 0 0 1 .023.256l-1.858 2.61a1.016 1.016 0 0 0-.045 1.105 12.04 12.04 0 0 1 1.309 3.151.998.998 0 0 0 .812.745l3.158.533a.195.195 0 0 1 .166.196v3.166h-.008z" fill="#333"/><path d="M20.004 10.228a7.773 7.773 0 0 0-7.769 7.768 7.773 7.773 0 0 0 7.769 7.769 7.773 7.773 0 0 0 7.768-7.769 7.773 7.773 0 0 0-7.768-7.768zm0 13.506a5.742 5.742 0 0 1-5.738-5.738 5.742 5.742 0 0 1 5.738-5.738 5.742 5.742 0 0 1 5.738 5.738 5.742 5.742 0 0 1-5.738 5.738z" fill="#333"/><path d="M2 44H1a1 1 0 0 0 1 1v-1zm36 0v1a1 1 0 0 0 1-1h-1zm-1.843-29.779l-.167.986h.002l.165-.986zm-2.526-.429l-.956.296.182.587.606.103.167-.986zm-1.016-2.451l-.813-.582-.36.503.29.546.883-.467zm1.49-2.083l.813.581v-.002l-.814-.58zm-.241-2.866l-.707.707.003.004.704-.71zm-2.241-2.24l-.708.706.708-.707zm-2.858-.241l.58.814.004-.003-.584-.811zM26.675 5.4l-.468.884.545.288.502-.358-.58-.814zm-2.543-1.046l-.986.167.104.613.596.178.286-.958zm-.42-2.496l-.987.165.986-.165zm-7.559 0l.986.168v-.003l-.986-.165zm-.436 2.556l.298.955.585-.183.103-.603-.986-.169zm-2.444 1.03l-.584.812.507.366.551-.297-.474-.88zm-2.068-1.488l.584-.812-.584.812zm-2.865.24l.706.709.007-.008-.713-.7zM6.09 6.437l-.706-.708-.001.001.707.707zm-.24 2.866l.814-.58-.815.58zm1.503 2.113l.886.464.285-.544-.356-.5-.815.58zm-1 2.46l.167.985.612-.103.179-.595-.958-.288zm-2.496.42l.165.986-.165-.986zm0 7.558l.168-.986h-.003l-.165.986zm2.556.436l.955-.298-.183-.584-.603-.103-.169.985zm1.03 2.445l.813.583.365-.507-.297-.55-.88.474zm-1.48 2.06l-.813-.584-.002.004.814.58zm.24 2.865l.707-.707-.003-.003-.704.71zm2.24 2.241l-.706.707.707-.707zm2.859.241l-.58-.815-.005.003.585.812zm2.113-1.504l.464-.886-.544-.285-.5.356.58.815zm2.376.978l.987-.165-.102-.607-.587-.183-.298.955zm.421 2.526l-.986.165v.001l.986-.166zm7.566 0l-.986-.167v.002l.986.166zm.428-2.526l-.295-.956-.588.182-.102.606.985.168zM26.66 30.6l.582-.813-.503-.36-.546.29.467.883zm2.083 1.49l.585-.812-.003-.002-.582.813zm2.866-.241l.707.707-.707-.707zm2.24-2.241l-.706-.707.707.707zm.241-2.866l.815-.58-.815.58zm-1.489-2.09l-.886-.464-.285.544.357.5.814-.58zm1.015-2.452l-.164-.986-.612.102-.18.594.956.29zm2.527-.421l.165.986-.165-.986zM38 16.417l-1-.014v.014h1zm-2.016 3.166v-1h-1v1h1zm-.165.196l-.152-.989-.013.002.165.987zm-3.159.526l-.164-.986h-.003l.167.986zm-.812.744l.968.25.001-.002-.969-.248zm-1.308 3.152l-.86-.512-.003.005.863.507zm.045 1.105l-.818.576.002.003.816-.579zm1.857 2.617l.82-.573-.004-.006-.816.58zm-.022.256l-.707-.707.707.707zm-2.241 2.24l.707.708-.707-.707zm-.256.023l.6-.8-.01-.007-.01-.007-.58.814zm-2.61-1.857l-.584.811.005.004.58-.815zm-1.105-.045l-.506-.863-.006.004.512.859zm-3.151 1.308l.242.97.008-.002-.25-.968zm-.745.813l.986.166.002-.007v-.007l-.988-.152zm-.534 3.158l-.986-.167v.008l-.002.007.989.152zm-3.557 0l.989-.152-.002-.012-.987.164zm-.526-3.159l.986-.164v-.003l-.986.168zm-.745-.812l-.25.969h.003l.247-.969zm-3.083-1.263l.498-.867-.002-.001-.496.868zm-1.098.053l.58.814.007-.005.008-.005-.595-.804zm-2.632 1.872l.514.858.034-.02.032-.023-.58-.815zm-.256-.022l-.707.707.707-.707zm-2.24-2.241l.706-.708-.707.707zm-.023-.256l-.815-.58-.015.02-.014.023.844.537zm1.85-2.595l.814.58.003-.004-.817-.576zm.045-1.113l.862-.506-.005-.008-.857.514zM8.189 21.14l.968-.25-.001-.008-.002-.007-.965.265zm-.812-.745l.17-.985h-.002l-.168.985zm-3.181-.541l.168-.986-.008-.001-.008-.002-.152.989zm0-3.557l.152.988.013-.002-.165-.986zm3.136-.527l.165.986H7.5l-.167-.986zm.82-.752l-.97-.244v.002l.97.242zm1.286-3.158l.862.506-.862-.506zm-.053-1.098l-.815.58.004.004.811-.584zM7.512 8.13l-.819.573.005.006.814-.58zm.023-.256l-.707-.707.707.707zm2.241-2.241l.707.707-.707-.707zm.256-.023l-.6.8.01.007.01.007.58-.814zm2.594 1.85l-.58.814.004.004.576-.818zm1.113.045l.506.863.009-.005-.515-.858zm3.144-1.323l.25.968.007-.002.007-.002-.264-.964zm.744-.812l.986.17v-.003l-.986-.167zm.542-3.182l.985.168.002-.008.001-.008-.988-.152zm3.557 0l-.989.152.003.014.986-.166zm.526 3.136l-.986.166v.002l.986-.168zm.752.82l.244-.97h-.001l-.243.97zm3.226 1.324l-.507.861.001.001.506-.862zm1.106-.045l.576.817.008-.005-.584-.812zm2.595-1.865l-.515-.858-.036.021-.033.025.583.812zm.255.022l-.707.707.707-.707zm2.241 2.241l.707-.707-.707.707zm.023.256l.814.58.015-.021.014-.022-.843-.537zm-1.858 2.61l.812.584.003-.005-.815-.58zm-.045 1.105l-.862.506.003.005.86-.511zm1.309 3.151l.97-.243-.002-.007-.968.25zm.812.745l.167-.987h-.008l-.007-.002-.152.989zm3.158.533l-.166.986.007.002h.007l.152-.988zm.166 3.362v1h1v-1h-1zM3 38.621a2 2 0 0 0-2-2v2h2zM3 44v-5.38H1V44h2zm35-1H2v2h36v-2zm-1-4.38V44h2v-5.38h-2zm2-2a2 2 0 0 0-2 2h2v-2zm2 2a2 2 0 0 0-2-2v2h2zM41 45v-6.38h-2V45h2zm-2 2a2 2 0 0 0 2-2h-2v2zM1 47h38v-2H1v2zm-2-2a2 2 0 0 0 2 2v-2h-2zm0-6.38V45h2v-6.38h-2zm2-2a2 2 0 0 0-2 2h2v-2zm35.325-23.385l-2.527-.429-.335 1.972 2.527.429.335-1.972zm-1.74.261a15.267 15.267 0 0 0-1.086-2.623l-1.768.935c.384.726.699 1.488.944 2.28l1.91-.591zm-1.156-1.574l1.489-2.083-1.627-1.163-1.49 2.083 1.628 1.163zm1.49-2.085a3.217 3.217 0 0 0-.352-4.155l-1.407 1.42c.423.42.48 1.083.13 1.576l1.629 1.16zm-.348-4.152l-2.241-2.24-1.415 1.413L33.157 7.1l1.414-1.414zm-2.241-2.24a3.208 3.208 0 0 0-2.28-.948v2c.326 0 .63.125.865.361l1.415-1.414zm-2.28-.948c-.674 0-1.322.208-1.87.602l1.17 1.623c.204-.147.443-.225.7-.225v-2zm-1.865.6l-2.091 1.488 1.16 1.63 2.091-1.49-1.16-1.629zM27.14 4.514a15.116 15.116 0 0 0-2.722-1.119l-.573 1.916c.814.244 1.603.572 2.361.972l.934-1.769zm-2.023-.327l-.42-2.497-1.973.333.421 2.497 1.972-.333zm-.42-2.496A3.222 3.222 0 0 0 21.514-1v2c.603 0 1.11.43 1.21 1.023l1.972-.331zM21.514-1H18.35v2h3.166v-2zM18.35-1a3.222 3.222 0 0 0-3.182 2.692l1.973.331A1.22 1.22 0 0 1 18.35 1v-2zm-3.181 2.69l-.437 2.556 1.972.337.436-2.557-1.971-.337zm.25 1.77c-.903.282-1.782.653-2.62 1.104l.95 1.761a12.915 12.915 0 0 1 2.267-.956L15.42 3.46zm-1.56 1.173L11.79 3.144l-1.168 1.623 2.068 1.49 1.168-1.624zM11.79 3.144a3.208 3.208 0 0 0-1.878-.602v2c.261 0 .507.08.71.225l1.168-1.623zm-1.878-.602c-.857 0-1.68.338-2.285.954l1.427 1.401c.222-.226.528-.355.858-.355v-2zm-2.277.946L5.385 5.73l1.412 1.417 2.249-2.241-1.412-1.417zM5.384 5.73a3.226 3.226 0 0 0-.348 4.153l1.63-1.16a1.226 1.226 0 0 1 .132-1.578L5.384 5.73zm-.348 4.153l1.504 2.113 1.63-1.16-1.505-2.113-1.63 1.16zm1.433 1.069a14.937 14.937 0 0 0-1.072 2.635l1.915.576a12.93 12.93 0 0 1 .928-2.283l-1.771-.928zm-.281 1.937l-2.497.421.333 1.972 2.497-.42-.333-1.973zm-2.496.421A3.222 3.222 0 0 0 1 16.492h2c0-.602.43-1.11 1.023-1.21l-.331-1.972zM1 16.492v3.166h2v-3.166H1zm0 3.166a3.222 3.222 0 0 0 2.692 3.182l.331-1.972A1.222 1.222 0 0 1 3 19.658H1zm2.69 3.182l2.556.436.337-1.971-2.557-.437-.337 1.972zm1.77-.251a14.89 14.89 0 0 0 1.104 2.62l1.761-.949a12.917 12.917 0 0 1-.956-2.268l-1.909.597zm1.173 1.562L5.15 26.21l1.624 1.168 1.482-2.06-1.624-1.168zm-1.484 2.064a3.217 3.217 0 0 0 .351 4.156l1.408-1.421a1.217 1.217 0 0 1-.13-1.575l-1.63-1.16zm.348 4.152l2.24 2.241 1.415-1.414-2.241-2.24-1.414 1.413zm2.24 2.241a3.207 3.207 0 0 0 2.28.948v-2c-.326 0-.629-.126-.865-.362L7.738 32.61zm2.28.948a3.19 3.19 0 0 0 1.87-.602l-1.169-1.623a1.185 1.185 0 0 1-.701.225v2zm1.866-.6l2.113-1.503-1.16-1.63-2.113 1.504 1.16 1.63zm1.068-1.433c.817.43 1.671.775 2.543 1.047l.596-1.909c-.767-.24-1.508-.54-2.21-.909l-.929 1.771zm1.855.257l.421 2.527 1.973-.329-.421-2.527-1.973.329zm.421 2.528A3.222 3.222 0 0 0 18.41 37v-2c-.602 0-1.11-.43-1.21-1.023l-1.972.331zM18.41 37h3.174v-2H18.41v2zm3.174 0a3.222 3.222 0 0 0 3.182-2.692l-1.972-.331A1.222 1.222 0 0 1 21.583 35v2zm3.182-2.69l.428-2.527-1.971-.335-.43 2.527 1.973.335zm-.262-1.74a15.27 15.27 0 0 0 2.624-1.086l-.935-1.768a13.27 13.27 0 0 1-2.28.944l.591 1.91zm1.575-1.156l2.083 1.489 1.163-1.627-2.083-1.49-1.163 1.628zm2.08 1.487c.55.396 1.206.602 1.878.602v-2c-.261 0-.507-.08-.71-.225L28.159 32.9zm1.878.602c.862 0 1.672-.34 2.279-.947L30.9 31.142a1.207 1.207 0 0 1-.864.361v2zm2.279-.947l2.24-2.241-1.413-1.414-2.242 2.24 1.415 1.415zm2.24-2.241a3.226 3.226 0 0 0 .349-4.152l-1.63 1.16c.348.487.29 1.154-.133 1.578l1.415 1.414zm.349-4.153l-1.49-2.09-1.628 1.16 1.489 2.09 1.629-1.16zm-1.418-1.046c.44-.838.81-1.716 1.086-2.625l-1.913-.581a13.17 13.17 0 0 1-.945 2.278l1.772.928zm.294-1.93l2.527-.42-.33-1.973-2.526.42.329 1.973zm2.528-.42A3.222 3.222 0 0 0 39 19.582h-2c0 .603-.43 1.11-1.023 1.21l.33 1.972zM39 19.582v-3.166h-2v3.166h2zm0-3.152a3.195 3.195 0 0 0-2.677-3.196l-.331 1.972c.595.1 1.016.606 1.008 1.196l2 .028zm-4.016 3.152c0-.375.273-.73.683-.793l.304 1.977a1.195 1.195 0 0 0 1.013-1.184h-2zm.67-.79l-3.158.526.329 1.972 3.158-.526-.328-1.973zm-3.161.526a2.01 2.01 0 0 0-1.614 1.483l1.938.495c0-.001 0-.002.002-.002l.002-.002a.019.019 0 0 1 .007-.002l-.335-1.972zM30.88 20.8a11.039 11.039 0 0 1-1.2 2.89l1.719 1.023a13.037 13.037 0 0 0 1.417-3.412l-1.936-.5zm-1.203 2.895a2.02 2.02 0 0 0 .09 2.188l1.635-1.152a.03.03 0 0 1-.004-.007.01.01 0 0 1 0-.003v-.005l.004-.008-1.725-1.013zm.092 2.19l1.858 2.618 1.63-1.158-1.857-2.617-1.63 1.158zm1.854 2.613a.8.8 0 0 1 .09-1.025l1.414 1.414c.418-.418.46-1.072.134-1.536l-1.638 1.147zm.09-1.025l-2.242 2.24 1.415 1.415 2.24-2.241-1.413-1.414zm-2.242 2.24a.8.8 0 0 1 .565-.232v2c.21 0 .553-.056.85-.353l-1.415-1.414zm.565-.232a.82.82 0 0 1 .487.162l-1.2 1.6c.186.14.43.238.713.238v-2zm.467.148l-2.61-1.858-1.16 1.63 2.61 1.857 1.16-1.63zm-2.605-1.854a2.016 2.016 0 0 0-2.196-.097l1.012 1.725a.03.03 0 0 1 .016-.004c.005 0 .003.001-.001-.002l1.17-1.622zm-2.202-.093a11.04 11.04 0 0 1-2.89 1.2l.501 1.936A13.034 13.034 0 0 0 26.72 29.4l-1.024-1.718zm-2.882 1.197c-.78.195-1.368.84-1.49 1.63l1.977.305-.002.006-.485-1.94zm-1.488 1.616l-.534 3.158 1.973.334.533-3.159-1.972-.333zm-.536 3.173a.805.805 0 0 1 .793-.683v2c.57 0 1.09-.407 1.184-1.013l-1.977-.304zm.793-.683h-3.166v2h3.166v-2zm-3.166 0c.375 0 .73.273.793.683l-1.977.304a1.195 1.195 0 0 0 1.184 1.014v-2zm.79.67l-.526-3.158-1.973.329.527 3.159 1.973-.33zm-.526-3.16a2.01 2.01 0 0 0-1.484-1.615l-.494 1.938.002.002s.002.001.002.003l.002.006 1.972-.335zM17.2 28.88a11.498 11.498 0 0 1-2.836-1.162l-.995 1.734a13.5 13.5 0 0 0 3.33 1.364l.5-1.936zm-2.838-1.163a2.04 2.04 0 0 0-1.007-.267v2h.002l.007.001.006.002.992-1.736zm-1.007-.267a1.99 1.99 0 0 0-1.181.383l1.188 1.609a.07.07 0 0 1-.015.008.027.027 0 0 1 .008 0v-2zm-1.167.373l-2.632 1.872 1.16 1.63 2.632-1.873-1.16-1.63zm-2.567 1.83a.785.785 0 0 1 .402-.105v2c.3 0 .523-.117.628-.18l-1.03-1.715zm.402-.105c.124 0 .363.031.564.233l-1.414 1.414c.307.306.666.353.85.353v-2zm.564.233l-2.24-2.242-1.415 1.415 2.241 2.24 1.414-1.413zm-2.24-2.242a.796.796 0 0 1 .113.989l-1.687-1.074c-.28.44-.271 1.07.16 1.5l1.413-1.415zm.084 1.032l1.85-2.594-1.629-1.161-1.85 2.594 1.629 1.161zm1.853-2.599a2.03 2.03 0 0 0 .09-2.195L8.65 24.79a.035.035 0 0 1 .005.018c0 .006-.002.01-.005.013l1.635 1.152zm.085-2.203a10.933 10.933 0 0 1-1.213-2.88l-1.936.501c.31 1.202.8 2.351 1.434 3.408l1.715-1.03zm-1.216-2.894a2.03 2.03 0 0 0-1.606-1.465l-.342 1.97.002.001.005.004a.04.04 0 0 1 .012.02l1.929-.53zm-1.61-1.466l-3.18-.541-.336 1.972 3.181.541.336-1.972zm-3.196-.544c.41.064.682.418.682.793h-2c0 .57.408 1.091 1.014 1.184l.304-1.977zm.682.793v-3.166h-2v3.166h2zm0-3.166c0 .375-.272.73-.682.793l-.304-1.977a1.195 1.195 0 0 0-1.014 1.184h2zm-.669.79l3.136-.526-.33-1.972-3.137.526.331 1.973zm3.138-.526a2.017 2.017 0 0 0 1.623-1.495l-1.94-.485-.002.002a.03.03 0 0 1-.016.006l.335 1.972zm1.622-1.494c.257-1.018.65-1.997 1.179-2.896l-1.725-1.013a13.026 13.026 0 0 0-1.393 3.421l1.94.488zm1.179-2.896a2.004 2.004 0 0 0-.104-2.19l-1.622 1.17.002.005v.002l1.724 1.013zm-.1-2.184L8.327 7.55l-1.63 1.16 1.873 2.63 1.63-1.159zM8.332 7.556a.8.8 0 0 1-.09 1.025L6.828 7.167a1.205 1.205 0 0 0-.135 1.536l1.639-1.147zm-.09 1.025l2.241-2.241L9.07 4.926l-2.241 2.24 1.414 1.415zm2.241-2.241a.799.799 0 0 1-.564.233v-2c-.211 0-.554.056-.85.353l1.414 1.414zm-.564.233a.815.815 0 0 1-.487-.163l1.2-1.6a1.185 1.185 0 0 0-.713-.237v2zm-.468-.149l2.595 1.85 1.16-1.628-2.594-1.85-1.16 1.628zm2.6 1.854a2.03 2.03 0 0 0 2.194.09l-1.012-1.725a.03.03 0 0 1-.017.004.024.024 0 0 1-.014-.004L12.05 8.278zm2.203.085c.898-.54 1.87-.952 2.879-1.213l-.5-1.936c-1.203.31-2.352.8-3.408 1.434l1.029 1.715zm2.893-1.217a2.03 2.03 0 0 0 1.466-1.606l-1.971-.34a.024.024 0 0 1-.005.006.042.042 0 0 1-.019.011l.53 1.93zm1.466-1.609l.541-3.18-1.971-.336-.542 3.18 1.972.336zm.544-3.197a.805.805 0 0 1-.793.683v-2c-.57 0-1.09.408-1.184 1.013l1.977.304zm-.793.683h3.166v-2h-3.166v2zm3.166 0a.805.805 0 0 1-.793-.683l1.977-.304a1.195 1.195 0 0 0-1.184-1.013v2zm-.79-.669l.526 3.136 1.972-.331-.526-3.136-1.972.331zm.526 3.138c.133.78.71 1.426 1.496 1.622l.485-1.94-.002-.002a.03.03 0 0 1-.007-.015l-1.972.335zm1.494 1.622c1.044.263 2.038.67 2.963 1.215l1.015-1.723a13.206 13.206 0 0 0-3.49-1.432l-.488 1.94zm2.964 1.216c.681.4 1.533.371 2.188-.09L26.76 6.605a.029.029 0 0 1-.007.004h-.008a.032.032 0 0 1-.008-.004L25.724 8.33zm2.196-.095l2.594-1.865-1.167-1.624-2.595 1.865 1.168 1.624zm2.525-1.82a.785.785 0 0 1-.402.105v-2c-.3 0-.522.117-.627.18l1.029 1.715zm-.402.105a.798.798 0 0 1-.564-.233l1.414-1.414a1.201 1.201 0 0 0-.85-.353v2zm-.564-.233l2.241 2.241 1.414-1.414-2.24-2.241-1.415 1.414zm2.241 2.241a.796.796 0 0 1-.114-.988l1.688 1.074c.28-.44.27-1.07-.16-1.5L31.72 8.528zm-.085-1.031l-1.857 2.61 1.629 1.16 1.857-2.61-1.629-1.16zm-1.854 2.605a2.016 2.016 0 0 0-.096 2.196l1.725-1.012a.03.03 0 0 1-.005-.016c0-.005.002-.003-.002.001l-1.622-1.17zm-.093 2.201a11.04 11.04 0 0 1 1.2 2.89l1.936-.5a13.043 13.043 0 0 0-1.418-3.413l-1.718 1.024zm1.198 2.882c.195.78.839 1.37 1.63 1.49l.304-1.976.006.002-1.94.484zm1.615 1.489l3.159.533.333-1.972-3.158-.534-.334 1.973zm3.173.536a.805.805 0 0 1-.682-.793h2c0-.57-.408-1.09-1.014-1.184l-.304 1.977zm-.682-.793v3.166h2v-3.166h-2zm1 2.166h-.008v2h.008v-2zM20.004 9.228c-4.839 0-8.769 3.93-8.769 8.768h2a6.773 6.773 0 0 1 6.769-6.768v-2zm-8.769 8.768c0 4.84 3.93 8.769 8.769 8.769v-2a6.773 6.773 0 0 1-6.769-6.769h-2zm8.769 8.769c4.839 0 8.768-3.93 8.768-8.769h-2a6.773 6.773 0 0 1-6.768 6.769v2zm8.768-8.769c0-4.839-3.93-8.768-8.768-8.768v2a6.773 6.773 0 0 1 6.768 6.768h2zm-8.768 4.738a4.742 4.742 0 0 1-4.738-4.738h-2a6.742 6.742 0 0 0 6.738 6.738v-2zm-4.738-4.738a4.742 4.742 0 0 1 4.738-4.738v-2a6.742 6.742 0 0 0-6.738 6.738h2zm4.738-4.738a4.742 4.742 0 0 1 4.738 4.738h2a6.742 6.742 0 0 0-6.738-6.738v2zm4.738 4.738a4.742 4.742 0 0 1-4.738 4.738v2a6.742 6.742 0 0 0 6.738-6.738h-2z" fill="#fff" mask="url(#a)"/></svg>