<svg width="33" height="51" viewBox="0 0 33 51" fill="none" xmlns="http://www.w3.org/2000/svg"><path d="M27.923 9.07l.733.681a1 1 0 0 0 0-1.361l-.733.68zm-26.653 0v-1a1 1 0 0 0-1 1h1zm3.808 32.86l-.733-.681a1 1 0 0 0 0 1.361l.733-.68zm26.653 0v1a1 1 0 0 0 1-1h-1zM19.694 1.68l7.497 8.071 1.465-1.361L21.159.32l-1.465 1.36zm1.465 16.142l7.497-8.07-1.465-1.362-7.497 8.07 1.465 1.362zm-18.89 9.19V9.07h-2v17.94h2zm-1-16.941h26.654v-2H1.27v2zm12.038 39.248L5.81 41.25l-1.465 1.36 7.497 8.07 1.465-1.36zm-1.465-16.14l-7.497 8.07L5.81 42.61l7.497-8.07-1.465-1.362zm18.89-9.19v17.94h2V23.99h-2zm1 16.94H5.077v2H31.73v-2z" fill="#fff"/></svg>