<svg width="49" height="42" viewBox="0 0 49 42" fill="none" xmlns="http://www.w3.org/2000/svg"><path d="M6.468 17.162a1 1 0 1 0 2 0h-2zm34.065.187a1 1 0 1 0 2 .028l-2-.028zm2 10.384a1 1 0 1 0-2 0h2zM30.607 37.839a1 1 0 1 0 0 2v-2zm-8.116-1.159v-1a1 1 0 0 0-1 1h1zm7.448 0h1a1 1 0 0 0-1-1v1zm0 4.32v1a1 1 0 0 0 1-1h-1zm-7.448 0h-1a1 1 0 0 0 1 1v-1zM7.468 15.288h1v-1h-1v1zm0 13.136v1h1v-1h-1zm34.064 0h-1v1h1v-1zm0-13.136v-1h-1v1h1zM8.468 17.161C8.468 8.848 15.646 2 24.613 2V0C14.655 0 6.468 7.634 6.468 17.162h2zM24.613 2c8.952 0 16.037 6.92 15.92 15.349l2 .028C42.665 7.744 34.588 0 24.612 0v2zm15.92 25.733v10.415h2V27.733h-2zm0 10.415c0-.156.129-.309.32-.309v2c.942 0 1.68-.771 1.68-1.69h-2zm.32-.309H30.607v2h10.246v-2zM22.49 37.68h7.448v-2H22.49v2zm6.448-1V41h2v-4.32h-2zm1 3.32H22.49v2h7.448v-2zm-6.448 1v-4.32h-2V41h2zM2 21.856c0-3.087 2.464-5.568 5.468-5.568v-2C3.33 14.288 0 17.694 0 21.856h2zm4.468-6.568v13.136h2V15.288h-2zm1 12.136C4.464 27.424 2 24.944 2 21.856H0c0 4.163 3.33 7.568 7.468 7.568v-2zM47 21.856c0 3.088-2.464 5.568-5.468 5.568v2c4.137 0 7.468-3.405 7.468-7.568h-2zm-4.468 6.568V15.288h-2v13.136h2zm-1-12.136c3.004 0 5.468 2.482 5.468 5.568h2c0-4.162-3.33-7.568-7.468-7.568v2z" fill="#fff"/></svg>